<svg id="drawing" xmlns="http://www.w3.org/2000/svg" version="1.1" xmlns:xlink="http://www.w3.org/1999/xlink" xmlns:svgjs="http://svgjs.com/svgjs" width="761" height="652" viewBox="119 340 761 652"><defs id="SvgjsDefs1001"><marker id="SvgjsMarker1046" markerWidth="16.23606797749979" markerHeight="10.550836550532098" refX="-1" refY="3.8990363547948754" viewBox="-1 -1.3763819204711738 16.23606797749979 10.550836550532098" orient="auto" markerUnits="userSpaceOnUse"><path id="SvgjsPath1047" d="M12 3.8990363547948754L0 7.798072709589751V0Z " stroke="#323232" stroke-width="2" fill="#323232" transform="matrix(1,0,0,1,0,0)"></path></marker><marker id="SvgjsMarker1053" markerWidth="16.23606797749979" markerHeight="10.550836550532098" refX="-1" refY="3.8990363547948754" viewBox="-1 -1.3763819204711738 16.23606797749979 10.550836550532098" orient="auto" markerUnits="userSpaceOnUse"><path id="SvgjsPath1054" d="M12 3.8990363547948754L0 7.798072709589751V0Z " stroke="#323232" stroke-width="2" fill="#ffffff" transform="matrix(1,0,0,1,0,0)"></path></marker><marker id="SvgjsMarker1074" markerWidth="16.23606797749979" markerHeight="10.550836550532098" refX="-1" refY="3.8990363547948754" viewBox="-1 -1.3763819204711738 16.23606797749979 10.550836550532098" orient="auto" markerUnits="userSpaceOnUse"><path id="SvgjsPath1075" d="M12 3.8990363547948754L0 7.798072709589751V0Z " stroke="#323232" stroke-width="2" fill="#323232" transform="matrix(1,0,0,1,0,0)"></path></marker><marker id="SvgjsMarker1095" markerWidth="16.23606797749979" markerHeight="10.550836550532098" refX="-1" refY="3.8990363547948754" viewBox="-1 -1.3763819204711738 16.23606797749979 10.550836550532098" orient="auto" markerUnits="userSpaceOnUse"><path id="SvgjsPath1096" d="M12 3.8990363547948754L0 7.798072709589751V0Z " stroke="#323232" stroke-width="2" fill="#323232" transform="matrix(1,0,0,1,0,0)"></path></marker></defs><g id="SvgjsG1007"><path id="SvgjsPath1008" d="M119 340H880V992H119V340Z " fill-opacity="1" fill="#ffffff"></path><g id="SvgjsG1009"><g id="SvgjsG1010" transform="translate(277 822)" opacity="1"><path id="SvgjsPath1011" d="M0 4Q0 0 4 0L206 0Q210 0 210 4L210 146Q210 150 206 150L4 150Q0 150 0 146Z " stroke-dasharray="none" stroke="#323232" stroke-width="2" fill="#ffffff" opacity="1"></path><path id="SvgjsPath1012" d="M0 30L210 30M0 90L210 90 " stroke-dasharray="none" stroke="#323232" stroke-width="2" fill="none" opacity="1"></path><path id="SvgjsPath1013" d="M0 0L210 0L210 150L0 150Z " stroke-dasharray="none" stroke-width="0" stroke="#323232" fill="none" opacity="1"></path><g id="SvgjsG1014" transform="matrix(1 0 0 1 10 6.875)" fill="#ffffff"><text id="SvgjsText1015" font-family="微软雅黑,黑体,Arial,SimSun" fill="#000000" font-size="13" font-weight="bold" font-style="normal" text-anchor="middle" text-decoration="blink" x="95" y="15">PathClassLoader</text></g><g id="SvgjsG1016" transform="matrix(1 0 0 1 10 43.75)" fill="#ffffff"><text id="SvgjsText1017" font-family="微软雅黑,黑体,Arial,SimSun" fill="#000000" font-size="13" font-weight="false" font-style="normal" text-anchor="start" text-decoration="blink" x="0" y="15">- methodA()</text><text id="SvgjsText1018" font-family="微软雅黑,黑体,Arial,SimSun" fill="#000000" font-size="13" font-weight="false" font-style="normal" text-anchor="start" text-decoration="blink" x="0" y="31.25">- methodB()</text></g><g id="SvgjsG1019" transform="matrix(1 0 0 1 10 103.75)" fill="#ffffff"><text id="SvgjsText1020" font-family="微软雅黑,黑体,Arial,SimSun" fill="#000000" font-size="13" font-weight="false" font-style="normal" text-anchor="start" text-decoration="blink" x="0" y="15">- attributeA</text><text id="SvgjsText1021" font-family="微软雅黑,黑体,Arial,SimSun" fill="#000000" font-size="13" font-weight="false" font-style="normal" text-anchor="start" text-decoration="blink" x="0" y="31.25">- attributeB</text></g></g><g id="SvgjsG1022" transform="translate(456 553)" opacity="1"><path id="SvgjsPath1023" d="M0 4Q0 0 4 0L206 0Q210 0 210 4L210 146Q210 150 206 150L4 150Q0 150 0 146Z " stroke-dasharray="none" stroke="#323232" stroke-width="2" fill="#ffffff" opacity="1"></path><path id="SvgjsPath1024" d="M0 30L210 30 " stroke-dasharray="none" stroke="#323232" stroke-width="2" fill="none" opacity="1"></path><path id="SvgjsPath1025" d="M0 0L210 0L210 150L0 150Z " stroke-dasharray="none" stroke-width="0" stroke="#323232" fill="none" opacity="1"></path><g id="SvgjsG1026" transform="matrix(1 0 0 1 10 -1.25)" fill="#ffffff"><text id="SvgjsText1027" font-family="微软雅黑,黑体,Arial,SimSun" fill="#000000" font-size="13" font-weight="bold" font-style="normal" text-anchor="middle" text-decoration="blink" x="95" y="15">BaseClassloader</text><text id="SvgjsText1028" font-family="微软雅黑,黑体,Arial,SimSun" fill="#000000" font-size="13" font-weight="bold" font-style="normal" text-anchor="middle" text-decoration="blink" x="95" y="16.25"></text></g><g id="SvgjsG1029" transform="matrix(1 0 0 1 10 73.75)" fill="#ffffff"><text id="SvgjsText1030" font-family="微软雅黑,黑体,Arial,SimSun" fill="#000000" font-size="13" font-weight="false" font-style="normal" text-anchor="start" text-decoration="blink" x="0" y="15">- methodA()</text><text id="SvgjsText1031" font-family="微软雅黑,黑体,Arial,SimSun" fill="#000000" font-size="13" font-weight="false" font-style="normal" text-anchor="start" text-decoration="blink" x="0" y="31.25">- methodB()</text></g></g><g id="SvgjsG1032" transform="translate(650 822)" opacity="1"><path id="SvgjsPath1033" d="M0 4Q0 0 4 0L206 0Q210 0 210 4L210 146Q210 150 206 150L4 150Q0 150 0 146Z " stroke-dasharray="none" stroke="#323232" stroke-width="2" fill="#ffffff" opacity="1"></path><path id="SvgjsPath1034" d="M0 30L210 30M0 90L210 90 " stroke-dasharray="none" stroke="#323232" stroke-width="2" fill="none" opacity="1"></path><path id="SvgjsPath1035" d="M0 0L210 0L210 150L0 150Z " stroke-dasharray="none" stroke-width="0" stroke="#323232" fill="none" opacity="1"></path><g id="SvgjsG1036" transform="matrix(1 0 0 1 10 6.875)" fill="#ffffff"><text id="SvgjsText1037" font-family="微软雅黑,黑体,Arial,SimSun" fill="#000000" font-size="13" font-weight="bold" font-style="normal" text-anchor="middle" text-decoration="blink" x="95" y="15">DexClassLoader</text></g><g id="SvgjsG1038" transform="matrix(1 0 0 1 10 43.75)" fill="#ffffff"><text id="SvgjsText1039" font-family="微软雅黑,黑体,Arial,SimSun" fill="#000000" font-size="13" font-weight="false" font-style="normal" text-anchor="start" text-decoration="blink" x="0" y="15">- attributeA</text><text id="SvgjsText1040" font-family="微软雅黑,黑体,Arial,SimSun" fill="#000000" font-size="13" font-weight="false" font-style="normal" text-anchor="start" text-decoration="blink" x="0" y="31.25">- attributeB</text></g><g id="SvgjsG1041" transform="matrix(1 0 0 1 10 103.75)" fill="#ffffff"><text id="SvgjsText1042" font-family="微软雅黑,黑体,Arial,SimSun" fill="#000000" font-size="13" font-weight="false" font-style="normal" text-anchor="start" text-decoration="blink" x="0" y="15">- methodA()</text><text id="SvgjsText1043" font-family="微软雅黑,黑体,Arial,SimSun" fill="#000000" font-size="13" font-weight="false" font-style="normal" text-anchor="start" text-decoration="blink" x="0" y="31.25">- methodB()</text></g></g><g id="SvgjsG1044"><path id="SvgjsPath1045" d="M382 822L382 762.5L561 762.5L561 718.2360679774998 " stroke-dasharray="none" stroke="#323232" stroke-width="2" fill="none" marker-end="url(#SvgjsMarker1046)"></path><g id="SvgjsG1048" transform="matrix(1 0 0 1 463.8819660112501 754.375)"><path id="SvgjsPath1049" d="M0 0H0V0H0V0Z " fill="#ffffff" transform="translate(0 0)"></path><text id="SvgjsText1050" font-family="Microsoft Yahei,SimSun" fill="#000000" font-size="13" font-weight="normal" font-style="normal" text-anchor="middle" text-decoration="blink" x="0" y="0"></text></g></g><g id="SvgjsG1051"><path id="SvgjsPath1052" d="M755 822L755 762.5L561 762.5L561 718.2360679774998 " stroke-dasharray="none" stroke="#323232" stroke-width="2" fill="none" marker-end="url(#SvgjsMarker1053)"></path><g id="SvgjsG1055" transform="matrix(1 0 0 1 665.6180339887499 754.375)"><path id="SvgjsPath1056" d="M0 0H0V0H0V0Z " fill="#ffffff" transform="translate(0 0)"></path><text id="SvgjsText1057" font-family="Microsoft Yahei,SimSun" fill="#000000" font-size="13" font-weight="normal" font-style="normal" text-anchor="middle" text-decoration="blink" x="0" y="0"></text></g></g><g id="SvgjsG1058" transform="translate(446 360)" opacity="1"><path id="SvgjsPath1059" d="M0 4Q0 0 4 0L226 0Q230 0 230 4L230 146Q230 150 226 150L4 150Q0 150 0 146Z " stroke-dasharray="none" stroke="#323232" stroke-width="2" fill="#ffffff" opacity="1"></path><path id="SvgjsPath1060" d="M0 30L230 30M0 90L230 90 " stroke-dasharray="none" stroke="#323232" stroke-width="2" fill="none" opacity="1"></path><path id="SvgjsPath1061" d="M0 0L230 0L230 150L0 150Z " stroke-dasharray="none" stroke-width="0" stroke="#323232" fill="none" opacity="1"></path><g id="SvgjsG1062" transform="matrix(1 0 0 1 10 6.875)" fill="#ffffff"><text id="SvgjsText1063" font-family="微软雅黑,黑体,Arial,SimSun" fill="#000000" font-size="13" font-weight="bold" font-style="normal" text-anchor="middle" text-decoration="blink" x="105" y="15">DexPathList</text></g><g id="SvgjsG1064" transform="matrix(1 0 0 1 10 35.625)" fill="#ffffff"><text id="SvgjsText1065" font-family="微软雅黑,黑体,Arial,SimSun" fill="#000000" font-size="13" font-weight="false" font-style="normal" text-anchor="start" text-decoration="blink" x="0" y="15">+ attribute1:type = defaultValue</text><text id="SvgjsText1066" font-family="微软雅黑,黑体,Arial,SimSun" fill="#000000" font-size="13" font-weight="false" font-style="normal" text-anchor="start" text-decoration="blink" x="0" y="31.25">+ attribute2:type</text><text id="SvgjsText1067" font-family="微软雅黑,黑体,Arial,SimSun" fill="#000000" font-size="13" font-weight="false" font-style="normal" text-anchor="start" text-decoration="blink" x="0" y="47.5">- attribute3:type</text></g><g id="SvgjsG1068" transform="matrix(1 0 0 1 10 95.625)" fill="#ffffff"><text id="SvgjsText1069" font-family="微软雅黑,黑体,Arial,SimSun" fill="#000000" font-size="13" font-weight="false" font-style="normal" text-anchor="start" text-decoration="blink" x="0" y="15">+ operation1(params):returnType</text><text id="SvgjsText1070" font-family="微软雅黑,黑体,Arial,SimSun" fill="#000000" font-size="13" font-weight="false" font-style="normal" text-anchor="start" text-decoration="blink" x="0" y="31.25">- operation2(params)</text><text id="SvgjsText1071" font-family="微软雅黑,黑体,Arial,SimSun" fill="#000000" font-size="13" font-weight="false" font-style="normal" text-anchor="start" text-decoration="blink" x="0" y="47.5">- operation3()</text></g></g><g id="SvgjsG1072"><path id="SvgjsPath1073" d="M561 553L561 531.5L561 531.5L561 525.2360679774998 " stroke-dasharray="none" stroke="#323232" stroke-width="2" fill="none" marker-end="url(#SvgjsMarker1074)"></path><g id="SvgjsG1076" transform="matrix(1 0 0 1 561 530.9930339887499)"><path id="SvgjsPath1077" d="M0 0H0V0H0V0Z " fill="#ffffff" transform="translate(0 0)"></path><text id="SvgjsText1078" font-family="Microsoft Yahei,SimSun" fill="#000000" font-size="13" font-weight="normal" font-style="normal" text-anchor="middle" text-decoration="blink" x="0" y="0"></text></g></g><g id="SvgjsG1079" transform="translate(139 360)" opacity="1"><path id="SvgjsPath1080" d="M0 4Q0 0 4 0L226 0Q230 0 230 4L230 146Q230 150 226 150L4 150Q0 150 0 146Z " stroke-dasharray="none" stroke="#323232" stroke-width="2" fill="#ffffff" opacity="1"></path><path id="SvgjsPath1081" d="M0 30L230 30M0 90L230 90 " stroke-dasharray="none" stroke="#323232" stroke-width="2" fill="none" opacity="1"></path><path id="SvgjsPath1082" d="M0 0L230 0L230 150L0 150Z " stroke-dasharray="none" stroke-width="0" stroke="#323232" fill="none" opacity="1"></path><g id="SvgjsG1083" transform="matrix(1 0 0 1 10 6.875)" fill="#ffffff"><text id="SvgjsText1084" font-family="微软雅黑,黑体,Arial,SimSun" fill="#000000" font-size="13" font-weight="bold" font-style="normal" text-anchor="middle" text-decoration="blink" x="105" y="15">DexFile</text></g><g id="SvgjsG1085" transform="matrix(1 0 0 1 10 35.625)" fill="#ffffff"><text id="SvgjsText1086" font-family="微软雅黑,黑体,Arial,SimSun" fill="#000000" font-size="13" font-weight="false" font-style="normal" text-anchor="start" text-decoration="blink" x="0" y="15">+ attribute1:type = defaultValue</text><text id="SvgjsText1087" font-family="微软雅黑,黑体,Arial,SimSun" fill="#000000" font-size="13" font-weight="false" font-style="normal" text-anchor="start" text-decoration="blink" x="0" y="31.25">+ attribute2:type</text><text id="SvgjsText1088" font-family="微软雅黑,黑体,Arial,SimSun" fill="#000000" font-size="13" font-weight="false" font-style="normal" text-anchor="start" text-decoration="blink" x="0" y="47.5">- attribute3:type</text></g><g id="SvgjsG1089" transform="matrix(1 0 0 1 10 95.625)" fill="#ffffff"><text id="SvgjsText1090" font-family="微软雅黑,黑体,Arial,SimSun" fill="#000000" font-size="13" font-weight="false" font-style="normal" text-anchor="start" text-decoration="blink" x="0" y="15">+ operation1(params):returnType</text><text id="SvgjsText1091" font-family="微软雅黑,黑体,Arial,SimSun" fill="#000000" font-size="13" font-weight="false" font-style="normal" text-anchor="start" text-decoration="blink" x="0" y="31.25">- operation2(params)</text><text id="SvgjsText1092" font-family="微软雅黑,黑体,Arial,SimSun" fill="#000000" font-size="13" font-weight="false" font-style="normal" text-anchor="start" text-decoration="blink" x="0" y="47.5">- operation3()</text></g></g><g id="SvgjsG1093"><path id="SvgjsPath1094" d="M446 435L407.5 435L407.5 435L384.2360679774998 435 " stroke-dasharray="none" stroke="#323232" stroke-width="2" fill="none" marker-end="url(#SvgjsMarker1095)"></path><g id="SvgjsG1097" transform="matrix(1 0 0 1 415.11803398874986 426.875)"><path id="SvgjsPath1098" d="M0 0H0V0H0V0Z " fill="#ffffff" transform="translate(0 0)"></path><text id="SvgjsText1099" font-family="Microsoft Yahei,SimSun" fill="#000000" font-size="13" font-weight="normal" font-style="normal" text-anchor="middle" text-decoration="blink" x="0" y="0"></text></g></g></g></g></svg>