<svg id="drawing" xmlns="http://www.w3.org/2000/svg" version="1.1" xmlns:xlink="http://www.w3.org/1999/xlink" xmlns:svgjs="http://svgjs.com/svgjs" width="270" height="323" viewBox="362.5 243.5 270 323"><defs id="SvgjsDefs1001"><marker id="SvgjsMarker1037" markerWidth="16.23606797749979" markerHeight="10.550836550532098" refX="-1" refY="3.8990363547948754" viewBox="-1 -1.3763819204711738 16.23606797749979 10.550836550532098" orient="auto" markerUnits="userSpaceOnUse"><path id="SvgjsPath1038" d="M12 3.8990363547948754L0 7.798072709589751V0Z " stroke="#323232" stroke-width="2" fill="#323232" transform="matrix(1,0,0,1,0,0)"></path></marker></defs><g id="SvgjsG1007"><path id="SvgjsPath1008" d="M362.5 243.5H632.5V566.5H362.5V243.5Z " fill-opacity="0" fill="none"></path><g id="SvgjsG1009"><g id="SvgjsG1010" transform="translate(382.5 263.5)" opacity="1"><path id="SvgjsPath1011" d="M0 4Q0 0 4 0L226 0Q230 0 230 4L230 96Q230 100 226 100L4 100Q0 100 0 96Z " stroke-dasharray="none" stroke="#323232" stroke-width="2" fill="#ffffff" opacity="1"></path><path id="SvgjsPath1012" d="M0 30L230 30M0 69L230 69 " stroke-dasharray="none" stroke="#323232" stroke-width="2" fill="none" opacity="1"></path><path id="SvgjsPath1013" d="M0 0L230 0L230 100L0 100Z " stroke-dasharray="none" stroke-width="0" stroke="#323232" fill="none" opacity="1"></path><g id="SvgjsG1014" transform="matrix(1 0 0 1 10 6.875)" fill="#ffffff"><text id="SvgjsText1015" font-family="微软雅黑,黑体,Arial,SimSun" fill="#000000" font-size="13" font-weight="bold" font-style="normal" text-anchor="middle" text-decoration="blink" x="105" y="15">VertifyManager</text></g><g id="SvgjsG1016" transform="matrix(1 0 0 1 10 33.25)" fill="#ffffff"><text id="SvgjsText1017" font-family="微软雅黑,黑体,Arial,SimSun" fill="#000000" font-size="13" font-weight="false" font-style="normal" text-anchor="start" text-decoration="blink" x="0" y="15">+checker:SecurtyChecker</text><text id="SvgjsText1018" font-family="微软雅黑,黑体,Arial,SimSun" fill="#000000" font-size="13" font-weight="false" font-style="normal" text-anchor="start" text-decoration="blink" x="0" y="31.25">+mcontext:Context</text></g><g id="SvgjsG1019" transform="matrix(1 0 0 1 10 84.375)" fill="#ffffff"><text id="SvgjsText1020" font-family="微软雅黑,黑体,Arial,SimSun" fill="#000000" font-size="13" font-weight="false" font-style="normal" text-anchor="start" text-decoration="blink" x="0" y="15">+ verifyApk</text></g></g><g id="SvgjsG1021" transform="translate(382.5 398.5)" opacity="1"><path id="SvgjsPath1022" d="M0 4Q0 0 4 0L226 0Q230 0 230 4L230 144Q230 148 226 148L4 148Q0 148 0 144Z " stroke-dasharray="none" stroke="#323232" stroke-width="2" fill="#ffffff" opacity="1"></path><path id="SvgjsPath1023" d="M0 30L230 30M0 90L230 90 " stroke-dasharray="none" stroke="#323232" stroke-width="2" fill="none" opacity="1"></path><path id="SvgjsPath1024" d="M0 0L230 0L230 148L0 148Z " stroke-dasharray="none" stroke-width="0" stroke="#323232" fill="none" opacity="1"></path><g id="SvgjsG1025" transform="matrix(1 0 0 1 10 6.875)" fill="#ffffff"><text id="SvgjsText1026" font-family="微软雅黑,黑体,Arial,SimSun" fill="#000000" font-size="13" font-weight="bold" font-style="normal" text-anchor="middle" text-decoration="blink" x="105" y="15">SecurtyChecker</text></g><g id="SvgjsG1027" transform="matrix(1 0 0 1 10 33.125)" fill="#ffffff"><text id="SvgjsText1028" font-family="微软雅黑,黑体,Arial,SimSun" fill="#000000" font-size="13" font-weight="false" font-style="normal" text-anchor="start" text-decoration="blink" x="0" y="15">+ DEBUG_DN :X500Principal</text><text id="SvgjsText1029" font-family="微软雅黑,黑体,Arial,SimSun" fill="#000000" font-size="13" font-weight="false" font-style="normal" text-anchor="start" text-decoration="blink" x="0" y="31.25">+ key:PublicKey</text><text id="SvgjsText1030" font-family="微软雅黑,黑体,Arial,SimSun" fill="#000000" font-size="13" font-weight="false" font-style="normal" text-anchor="start" text-decoration="blink" x="0" y="47.5">- mDebuggable:boolean</text></g><g id="SvgjsG1031" transform="matrix(1 0 0 1 10 95.125)" fill="#ffffff"><text id="SvgjsText1032" font-family="微软雅黑,黑体,Arial,SimSun" fill="#000000" font-size="13" font-weight="false" font-style="normal" text-anchor="start" text-decoration="blink" x="0" y="15">+verifyOpt()</text><text id="SvgjsText1033" font-family="微软雅黑,黑体,Arial,SimSun" fill="#000000" font-size="13" font-weight="false" font-style="normal" text-anchor="start" text-decoration="blink" x="0" y="31.25">-saveOptSig()</text><text id="SvgjsText1034" font-family="微软雅黑,黑体,Arial,SimSun" fill="#000000" font-size="13" font-weight="false" font-style="normal" text-anchor="start" text-decoration="blink" x="0" y="47.5">-verifyApk()</text></g></g><g id="SvgjsG1035"><path id="SvgjsPath1036" d="M497.5 363.5L497.5 381L497.5 381L497.5 383.2639320225002 " stroke-dasharray="none" stroke="#323232" stroke-width="2" fill="none" marker-end="url(#SvgjsMarker1037)"></path><g id="SvgjsG1039" transform="matrix(1 0 0 1 497.5 365.25696601125014)"><path id="SvgjsPath1040" d="M0 0H0V0H0V0Z " fill="#ffffff" transform="translate(0 0)"></path><text id="SvgjsText1041" font-family="Microsoft Yahei,SimSun" fill="#000000" font-size="13" font-weight="normal" font-style="normal" text-anchor="middle" text-decoration="blink" x="0" y="0"></text></g></g></g></g></svg>